# xmcd
#
# Track frame offsets: 
#        150
#        14807
#        17187
#        35099
#        47688
#        64887
#        80569
#        94837
#        111553
#        126094
#        138798
#
# Disc length: 1918 seconds
#
# Revision: 0
# Processed by: cddbd v1.5.2PL0 Copyright (c) Steve Scherf et al.
# Submitted via: ExactAudioCopy v1.0b3
#
DISCID=9d077c0b
DTITLE=The Mother Truckers - Van Tour
DYEAR=2010
DGENRE=Rock and Roll
TTITLE0=Alien Girl
TTITLE1=S.O.B.
TTITLE2=Break-up Sex
TTITLE3=See You Tonight
TTITLE4=Keep It Simple
TTITLE5=Hard To See Why
TTITLE6=Size Of The Sun
TTITLE7=Concentrate
TTITLE8=Summer Of Love
TTITLE9=Van Tour
TTITLE10=End
EXTD=
EXTT0=
EXTT1=
EXTT2=
EXTT3=
EXTT4=
EXTT5=
EXTT6=
EXTT7=
EXTT8=
EXTT9=
EXTT10=
PLAYORDER=
